<?xml version="1.0" standalone="no"?>
<!DOCTYPE svg PUBLIC "-//W3C//DTD SVG 20010904//EN"
 "http://www.w3.org/TR/2001/REC-SVG-20010904/DTD/svg10.dtd">
<svg version="1.0" xmlns="http://www.w3.org/2000/svg"
 width="250.000000pt" height="250.000000pt" viewBox="0 0 250.000000 250.000000"
 preserveAspectRatio="xMidYMid meet">

<g transform="translate(0.000000,250.000000) scale(0.100000,-0.100000)"
fill="#000000" stroke="none">
<path d="M1140 2494 c-14 -2 -56 -9 -95 -15 -471 -73 -882 -448 -1000 -914
-113 -445 13 -893 341 -1212 188 -183 427 -300 694 -339 304 -44 611 29 880
209 94 64 261 230 322 322 93 142 153 282 190 447 32 146 32 370 0 516 -110
494 -494 872 -982 966 -83 16 -301 29 -350 20z m350 -38 c488 -97 873 -487
971 -981 21 -105 18 -368 -5 -475 -104 -481 -469 -846 -958 -957 -92 -21 -384
-24 -473 -5 -91 20 -243 71 -310 104 -222 112 -422 301 -540 513 -51 90 -111
255 -131 360 -22 111 -24 338 -5 445 42 233 158 463 321 634 195 206 448 335
735 376 83 12 304 4 395 -14z"/>
<path d="M376 1503 c-28 -86 -166 -550 -166 -558 0 -3 38 -5 84 -5 l84 0 11
33 c5 17 13 47 16 65 l7 33 96 -3 97 -3 14 -62 15 -63 122 0 123 0 -55 93
c-104 174 -99 158 -85 304 7 70 16 152 20 180 5 29 6 55 3 58 -3 3 -85 5 -183
5 l-177 0 -26 -77z m165 -188 c14 -58 24 -107 21 -110 -7 -7 -112 -7 -112 0 0
19 54 215 59 215 3 0 18 -47 32 -105z"/>
<path d="M1050 1260 l0 -320 216 0 c128 0 223 4 235 10 34 19 49 64 49 148 0
94 -11 132 -46 153 l-25 15 25 14 c32 16 39 53 35 159 -6 132 -26 141 -301
141 l-188 0 0 -320z m318 123 l-3 -58 -72 -3 -73 -3 0 61 0 60 75 0 76 0 -3
-57z m12 -248 l0 -65 -80 0 -80 0 0 65 0 65 80 0 80 0 0 -65z"/>
<path d="M1800 1260 l0 -320 85 0 85 0 0 95 0 95 113 1 c200 1 217 18 217 224
0 154 -13 192 -70 212 -22 8 -107 12 -232 12 l-198 1 0 -320z m325 95 l0 -80
-77 -3 -78 -3 0 79 c0 43 3 82 7 86 4 4 39 5 78 4 l70 -3 0 -80z"/>
</g>
</svg>
