<?xml version="1.0" standalone="no"?>
<!DOCTYPE svg PUBLIC "-//W3C//DTD SVG 20010904//EN"
 "http://www.w3.org/TR/2001/REC-SVG-20010904/DTD/svg10.dtd">
<svg version="1.0" xmlns="http://www.w3.org/2000/svg"
 width="500.000000pt" height="153.000000pt" viewBox="0 0 500.000000 153.000000"
 preserveAspectRatio="xMidYMid meet">

<g transform="translate(0.000000,153.000000) scale(0.100000,-0.100000)"
fill="#000000" stroke="none">
<path d="M360 1188 c-57 -189 -161 -532 -231 -763 l-127 -420 206 -3 c113 -1
207 -1 209 2 2 2 20 64 39 137 19 74 39 144 44 157 l10 22 222 -2 222 -3 39
-157 39 -158 294 0 294 0 -52 88 c-235 397 -308 529 -313 566 -4 24 13 211 39
444 25 222 46 410 46 418 0 12 -65 14 -438 14 l-439 0 -103 -342z m439 -268
c34 -135 64 -253 67 -262 5 -17 -6 -18 -135 -18 -106 0 -141 3 -141 13 0 29
134 527 140 520 4 -4 35 -118 69 -253z"/>
<path d="M2010 765 l0 -766 508 3 c557 3 548 2 615 66 65 61 72 88 75 302 3
123 0 214 -8 247 -16 76 -58 127 -121 151 -51 19 -51 19 -21 25 44 9 98 61
119 115 15 39 18 77 18 222 0 204 -10 250 -66 314 -73 83 -58 81 -621 84
l-498 3 0 -766z m768 433 c17 -17 17 -239 0 -256 -8 -8 -64 -12 -185 -12
l-173 0 0 140 0 140 173 0 c121 0 177 -4 185 -12z m20 -720 l-3 -153 -187 -3
-188 -2 0 155 0 155 190 0 191 0 -3 -152z"/>
<path d="M3810 765 l0 -765 205 0 205 0 0 234 0 234 283 5 c183 3 297 9 324
17 60 17 127 80 150 138 16 42 18 81 18 377 l0 330 -29 58 c-33 68 -88 109
-167 126 -31 7 -226 11 -519 11 l-470 0 0 -765z m775 235 l0 -185 -182 -3
-183 -2 0 190 0 190 183 -2 182 -3 0 -185z"/>
</g>
</svg>
