<?xml version="1.0" encoding="UTF-8" standalone="no"?>
<svg
   xmlns:dc="http://purl.org/dc/elements/1.1/"
   xmlns:cc="http://creativecommons.org/ns#"
   xmlns:rdf="http://www.w3.org/1999/02/22-rdf-syntax-ns#"
   xmlns:svg="http://www.w3.org/2000/svg"
   xmlns="http://www.w3.org/2000/svg"
   viewBox="0 0 882.38666 335.16"
   height="335.16"
   width="882.38666"
   xml:space="preserve"
   id="svg2"
   version="1.1"><metadata
     id="metadata8"><rdf:RDF><cc:Work
         rdf:about=""><dc:format>image/svg+xml</dc:format><dc:type
           rdf:resource="http://purl.org/dc/dcmitype/StillImage" /></cc:Work></rdf:RDF></metadata><defs
     id="defs6"><linearGradient
       id="linearGradient20"
       spreadMethod="pad"
       gradientTransform="matrix(6599.43,0,0,-6599.43,9.2334,1256.88)"
       gradientUnits="userSpaceOnUse"
       y2="0"
       x2="1"
       y1="0"
       x1="0"><stop
         id="stop14"
         offset="0"
         style="stop-opacity:1;stop-color:#74140d" /><stop
         id="stop16"
         offset="0.5"
         style="stop-opacity:1;stop-color:#c6261a" /><stop
         id="stop18"
         offset="1"
         style="stop-opacity:1;stop-color:#74140d" /></linearGradient><linearGradient
       id="linearGradient32"
       spreadMethod="pad"
       gradientTransform="matrix(6182.94,0,0,-6182.94,217.505,1256.91)"
       gradientUnits="userSpaceOnUse"
       y2="0"
       x2="1"
       y1="0"
       x1="0"><stop
         id="stop26"
         offset="0"
         style="stop-opacity:1;stop-color:#74140d" /><stop
         id="stop28"
         offset="0.5"
         style="stop-opacity:1;stop-color:#c6261a" /><stop
         id="stop30"
         offset="1"
         style="stop-opacity:1;stop-color:#74140d" /></linearGradient></defs><g
     transform="matrix(1.3333333,0,0,-1.3333333,0,335.16)"
     id="g10"><g
       transform="scale(0.1)"
       id="g12"><path
         id="path22"
         style="fill:url(#linearGradient20);fill-opacity:1;fill-rule:evenodd;stroke:none"
         d="M 6608.67,1256.96 C 6608.67,567.84 5131.37,9.23828 3308.94,9.23828 1486.5,9.23828 9.23438,567.84 9.23438,1256.96 c 0,689.01 1477.26562,1247.56 3299.70562,1247.56 1822.43,0 3299.73,-558.55 3299.73,-1247.56" /><path
         id="path24"
         style="fill:none;stroke:#ffffff;stroke-width:18.4701004;stroke-linecap:butt;stroke-linejoin:miter;stroke-miterlimit:4;stroke-dasharray:none;stroke-opacity:1"
         d="M 6608.67,1256.96 C 6608.67,567.84 5131.37,9.23828 3308.94,9.23828 1486.5,9.23828 9.23438,567.84 9.23438,1256.96 c 0,689.01 1477.26562,1247.56 3299.70562,1247.56 1822.43,0 3299.73,-558.55 3299.73,-1247.56 z" /><path
         id="path34"
         style="fill:url(#linearGradient32);fill-opacity:1;fill-rule:evenodd;stroke:none"
         d="M 6400.44,1256.96 C 6400.44,601 5016.33,69.2617 3308.94,69.2617 1601.59,69.2617 217.504,601 217.504,1256.96 c 0,655.86 1384.086,1187.59 3091.436,1187.59 1707.39,0 3091.5,-531.73 3091.5,-1187.59" /><path
         id="path36"
         style="fill:none;stroke:#ffffff;stroke-width:24.94890022;stroke-linecap:butt;stroke-linejoin:miter;stroke-miterlimit:4;stroke-dasharray:none;stroke-opacity:1"
         d="M 6400.44,1256.96 C 6400.44,601 5016.33,69.2617 3308.94,69.2617 1601.59,69.2617 217.504,601 217.504,1256.96 c 0,655.86 1384.086,1187.59 3091.436,1187.59 1707.39,0 3091.5,-531.73 3091.5,-1187.59 z" /><path
         id="path38"
         style="fill:#ffffff;fill-opacity:1;fill-rule:nonzero;stroke:none"
         d="m 1283.16,1301.44 38.54,-102.49 c 7.72,-22.03 13.22,-40.78 13.22,-56.21 0,-25.29 -13.22,-40.76 -36.33,-40.76 v -24.22 c 37.42,0 73.75,4.33 111.25,4.33 37.43,0 73.83,-4.33 111.28,-4.33 v 24.22 c -39.62,4.43 -49.58,40.76 -88.11,138.81 l -241.31,619.25 h -13.23 L 943.754,1267.21 C 922.855,1214.38 880.98,1110.77 836.891,1101.98 v -24.22 c 31.933,0 62.793,4.33 94.804,4.33 31.934,0 62.743,-4.33 94.695,-4.33 v 24.22 c -26.413,0 -39.648,20.9 -39.648,47.36 0,12.11 2.199,36.37 7.696,55.12 l 29.752,96.98 h 258.97 m -237.99,52.78 106.91,289.85 111.25,-289.85 h -218.16" /><path
         id="path40"
         style="fill:#ffffff;fill-opacity:1;fill-rule:nonzero;stroke:none"
         d="m 1524.83,1792.85 c 38.52,5.47 125.54,36.33 154.23,67.19 h 22.02 c -1.12,-59.53 -4.42,-167.49 -4.42,-268.81 V 1163.7 c 0,-37.5 8.78,-57.29 42.94,-62.89 v -21.98 c -33,0 -66.04,3.26 -99.1,3.26 -31.95,0 -62.84,-3.26 -94.79,-3.26 v 21.98 c 35.3,5.6 44.06,25.39 44.06,49.61 v 357.03 c 0,63.91 -5.49,146.58 -8.76,188.43 -2.23,45.16 -20.98,71.62 -56.18,71.62 v 25.35" /><path
         id="path42"
         style="fill:#ffffff;fill-opacity:1;fill-rule:nonzero;stroke:none"
         d="m 1744.02,1763.06 c 36.4,-6.59 51.79,-41.85 51.79,-75.97 0,-38.58 6.61,-111.29 6.61,-219.34 v -372.37 c 43,-18.7 124.49,-28.62 166.38,-28.62 152.03,0 299.66,68.32 299.66,243.47 0,115.67 -92.51,234.67 -213.7,234.67 -50.73,0 -99.14,-14.26 -145.46,-40.77 l 3.3,355.91 h -20.93 c -27.55,-30.86 -83.69,-67.19 -147.65,-74.91 v -22.07 m 165.28,-307.37 c 25.34,13.18 54.01,23.14 83.74,23.14 107.94,0 156.45,-78.22 156.45,-178.51 0,-109.05 -72.73,-196.19 -185.11,-196.19 -40.74,0 -55.08,18.75 -55.08,59.57 v 291.99" /><path
         id="path44"
         style="fill:#ffffff;fill-opacity:1;fill-rule:nonzero;stroke:none"
         d="m 2725.71,1356.47 c -1.08,116.85 -89.23,188.43 -202.71,188.43 -149.83,0 -224.83,-135.5 -224.83,-239.07 0,-103.56 75,-239.07 253.45,-239.07 46.29,0 82.68,8.79 104.63,16.47 l 59.58,87.05 -11.04,13.24 c -33.11,-24.22 -74.93,-35.21 -115.67,-35.21 -113.53,0 -191.73,99.18 -184.02,208.16 h 320.61 m -317.29,44.14 c -2.26,56.15 36.33,106.84 95.83,106.84 71.65,0 102.49,-41.8 102.49,-106.84 h -198.32" /><path
         id="path46"
         style="fill:#ffffff;fill-opacity:1;fill-rule:nonzero;stroke:none"
         d="m 3067.65,1418.19 h -22.02 c -14.36,19.87 -30.83,37.5 -69.38,37.5 -46.31,0 -74.96,-58.45 -74.96,-93.7 0,-24.27 -7.76,-63.92 -7.76,-112.36 v -96.93 c 0,-33.11 11.04,-46.29 41.89,-51.89 v -21.98 c -30.85,1.08 -61.68,3.26 -92.5,3.26 -29.78,0 -59.5,-2.18 -89.25,-3.26 v 21.98 c 21.99,5.6 33,18.78 33,51.89 v 116.76 c 0,50.73 -5.49,96.97 -5.49,133.35 0,37.5 -14.28,50.63 -50.61,59.57 v 23.04 c 55,11.04 104.69,39.65 132.18,61.77 h 21.99 l 3.3,-92.58 h 2.22 c 22.1,34.14 63.91,90.29 108.01,90.29 20.92,0 48.48,-8.74 69.38,-23.15 v -103.56" /><path
         id="path48"
         style="fill:#ffffff;fill-opacity:1;fill-rule:nonzero;stroke:none"
         d="m 3100.66,1476.64 v 23.14 c 76.07,35.2 121.17,110.2 144.36,182.81 h 27.51 v -153.12 h 126.66 v -52.83 H 3261.55 V 1259.5 c 0,-71.55 22.02,-96.94 70.46,-96.94 23.17,0 44.12,9.93 60.62,26.47 l 16.51,-18.75 c -14.34,-15.47 -98,-103.52 -113.46,-103.52 -51.73,0 -141.04,50.69 -141.04,135.51 v 274.37 h -53.98" /><path
         id="path50"
         style="fill:#ffffff;fill-opacity:1;fill-rule:nonzero;stroke:none"
         d="m 3510.11,1420.43 c 27.59,40.78 55.05,58.4 109.06,58.4 74.88,0 79.32,-66.11 79.32,-125.63 -15.43,0 -34.16,3.27 -51.79,3.27 -100.26,0 -211.52,-45.22 -211.52,-161.97 0,-81.49 73.81,-127.74 148.73,-127.74 48.47,0 83.72,26.37 121.19,53.91 13.19,-27.54 46.29,-48.48 88.12,-53.91 l 82.71,66.08 -16.58,16.5 c -7.73,-2.25 -17.68,-4.39 -23.14,-4.39 -24.19,0 -33.11,14.35 -33.11,64.98 v 38.58 c 1.15,62.74 4.44,120.12 4.44,159.77 0,110.2 -83.71,136.62 -181.8,136.62 -51.74,0 -95.83,-6.54 -142.09,-19.83 v -104.64 h 26.46 m 191.67,-268.84 c -17.64,-11.04 -39.65,-18.75 -73.78,-18.75 -46.29,0 -85.95,38.57 -85.95,89.25 0,70.51 52.9,96.93 103.58,96.93 19.8,0 40.77,-3.32 52.86,-5.47 l 3.29,-161.96" /><path
         id="path52"
         style="fill:#ffffff;fill-opacity:1;fill-rule:nonzero;stroke:none"
         d="m 4207.93,1445.19 c 23.25,0 40.95,1.03 59.77,1.03 106.33,0 168.31,-75.3 168.31,-175.98 0,-85.31 -56.42,-153.91 -151.68,-153.91 -68.73,0 -76.4,11.08 -76.4,70.84 v 258.02 m -118.5,-274.62 c 0,-47.65 -14.36,-64.3 -63.06,-69.86 v -19.88 h 190.38 c 31.06,0 60.94,-4.44 90.77,-4.44 120.73,0 263.63,46.53 263.63,189.41 0,115.13 -69.78,173.78 -173.93,202.58 v 2.2 c 83.11,26.61 160.65,87.55 160.65,181.55 0,143.99 -148.47,197.16 -272.45,197.16 -26.56,0 -52.05,-4.44 -101.9,-4.44 -44.24,0 -89.65,4.44 -145.02,4.44 v -24.36 c 29.93,-4.45 47.59,-14.41 47.59,-56.5 0,-99.66 3.34,-240.23 3.34,-373.19 z m 124,616.66 c 0,21.09 13.25,22.17 44.31,22.17 119.66,0 164.99,-64.16 164.99,-161.57 0,-96.39 -66.43,-157.28 -164.99,-157.28 -14.41,0 -29.85,1.08 -49.81,2.15 l 5.5,294.53" /><path
         id="path54"
         style="fill:#ffffff;fill-opacity:1;fill-rule:nonzero;stroke:none"
         d="m 5023.2,1356.52 c -1.03,117.43 -89.65,189.4 -203.71,189.4 -150.59,0 -225.88,-136.28 -225.88,-240.23 0,-104.16 75.29,-240.39 254.64,-240.39 46.6,0 83.02,8.94 105.19,16.6 l 59.85,87.56 -11.09,13.32 c -33.23,-24.42 -75.27,-35.45 -116.29,-35.45 -114.03,0 -192.62,99.72 -184.83,209.19 h 322.12 m -318.85,44.29 c -2.27,56.49 36.49,107.42 96.39,107.42 71.97,0 102.88,-42.04 102.88,-107.42 h -199.27" /><path
         id="path56"
         style="fill:#ffffff;fill-opacity:1;fill-rule:nonzero;stroke:none"
         d="m 5480.49,1356.52 c -1.07,117.43 -89.62,189.4 -203.71,189.4 -150.55,0 -225.93,-136.28 -225.93,-240.23 0,-104.16 75.38,-240.39 254.72,-240.39 46.53,0 83.06,8.94 105.27,16.6 l 59.74,87.56 -11.03,13.32 c -33.26,-24.42 -75.37,-35.45 -116.28,-35.45 -114.14,0 -192.68,99.72 -184.96,209.19 h 322.18 m -318.84,44.29 c -2.2,56.49 36.52,107.42 96.31,107.42 72.03,0 102.95,-42.04 102.95,-107.42 h -199.26" /><path
         id="path58"
         style="fill:#ffffff;fill-opacity:1;fill-rule:nonzero;stroke:none"
         d="m 5490.87,1477.22 v 22.22 c 34.33,7.71 54.3,-2 64.28,57.81 17.66,105.23 40.9,259.13 152.77,259.13 22.16,0 48.65,-2.24 73.11,-10.01 v -79.69 h -33.25 c -2.2,19.93 -13.25,45.37 -36.53,45.37 -36.52,0 -53.12,-35.41 -53.12,-110.7 v -130.96 h 119.53 v -53.17 h -119.53 c -1.17,-42.09 -4.41,-106.3 -4.41,-185.94 v -139.5 c 0,-25.54 6.56,-40 42.04,-52.05 v -22.17 c -34.41,0 -67.53,3.27 -101.84,3.27 -28.83,0 -58.79,-2.25 -87.47,-3.27 v 22.17 c 33.22,12.05 39.8,26.51 39.8,52.05 v 112.89 c 0,81.89 -4.43,159.48 -7.7,212.55 h -47.68" /><path
         id="path60"
         style="fill:#ffffff;fill-opacity:1;fill-rule:nonzero;stroke:none"
         d="m 2053.58,2103.69 c 5.71,-8.84 11.36,-14.94 16.87,-18.41 5.54,-3.47 12.11,-5.28 19.58,-5.28 9.04,0 16.12,2.3 21.12,6.74 5.08,4.49 7.61,9.77 7.61,15.87 0,5.32 -2,10.01 -5.97,14.07 -4.05,4.05 -13.19,8 -27.23,11.71 -19.19,5.08 -32.96,11.28 -41.26,18.56 -10.3,9.18 -15.48,20.55 -15.48,34.03 0,14.5 5.18,26.56 15.48,35.99 10.33,9.57 24.45,14.35 42.41,14.35 10.21,0 19.34,-1.71 27.4,-5.12 7.97,-3.47 14.76,-7.82 20.36,-13.09 3.56,-3.56 7.2,-8.45 10.81,-14.55 l -28.52,-11.62 c -4.78,6.79 -9.71,11.81 -14.76,14.94 -5.01,3.12 -10.63,4.69 -16.78,4.69 -7.59,0 -13.64,-2.1 -18.14,-6.35 -4.57,-4.3 -6.81,-9.38 -6.81,-15.43 0,-4.74 1.83,-8.89 5.64,-12.4 3.71,-3.42 12.91,-6.98 27.76,-10.65 14.82,-3.76 26.02,-8.05 33.67,-12.84 7.64,-4.93 13.35,-11.33 17.11,-19.14 3.81,-7.81 5.66,-15.87 5.66,-24.12 0,-8.79 -2.41,-17.53 -7.29,-26.32 -4.91,-8.84 -12.11,-15.57 -21.76,-20.31 -9.62,-4.74 -20.7,-7.13 -33.2,-7.13 -11.79,0 -22.03,2 -30.69,5.96 -8.72,4 -16.06,9.27 -22.07,16.01 -3.93,4.3 -7.84,10.31 -11.84,17.97 l 30.32,11.87" /><path
         id="path62"
         style="fill:#ffffff;fill-opacity:1;fill-rule:nonzero;stroke:none"
         d="m 2221.14,2228.05 h 33.95 V 2055.3 h -33.95 v 172.75" /><path
         id="path64"
         style="fill:#ffffff;fill-opacity:1;fill-rule:nonzero;stroke:none"
         d="m 2332.66,2228.05 h 35.94 l 70.92,-115.87 v 115.87 h 33.57 V 2055.3 h -33.52 l -72.97,120.46 V 2055.3 h -33.94 v 172.75" /><path
         id="path66"
         style="fill:#ffffff;fill-opacity:1;fill-rule:nonzero;stroke:none"
         d="m 2678.38,2104.76 c -2.39,-9.76 -5.44,-17.48 -9.13,-23.19 -5.97,-9.23 -13.59,-16.51 -23.06,-21.78 -9.46,-5.22 -20.39,-7.91 -32.8,-7.91 -13.25,0 -25.88,3.32 -37.94,10.01 -12.01,6.59 -21.19,16.65 -27.46,29.83 -6.25,13.24 -9.35,28.86 -9.35,46.83 0,18.7 3.22,35.25 9.57,49.61 6.35,14.4 15.55,25.2 27.68,32.42 12.14,7.13 24.89,10.74 38.27,10.74 9.83,0 19.48,-2.19 28.9,-6.59 9.47,-4.34 17.24,-10.45 23.44,-18.41 4.3,-5.56 7.73,-12.94 10.25,-22.12 l -31.59,-8.98 c -2.24,9.33 -6.23,16.31 -12.01,21.14 -5.71,4.74 -12.6,7.13 -20.68,7.13 -12.02,0 -21.34,-5.86 -28.03,-17.48 -6.66,-11.62 -10.03,-26.95 -10.03,-45.7 0,-11.92 1.56,-22.36 4.64,-31.35 3.04,-8.94 7.32,-15.58 12.69,-19.78 5.44,-4.29 11.28,-6.39 17.58,-6.39 9.47,0 17.97,3.42 25.36,10.25 5.31,4.74 9.48,11.62 12.48,20.56 l 31.22,-8.84" /><path
         id="path68"
         style="fill:#ffffff;fill-opacity:1;fill-rule:nonzero;stroke:none"
         d="m 2741.84,2228.05 h 115.77 v -29.93 h -81.81 v -38.14 h 49.83 v -25.63 h -49.83 v -49.27 h 81.81 v -29.78 h -115.77 v 172.75" /><path
         id="path70"
         style="fill:#ffffff;fill-opacity:1;fill-rule:nonzero;stroke:none"
         d="m 3764.61,2210.91 c 10.89,2.45 19.86,4.89 26.81,7.43 7.03,2.48 14.34,5.71 21.92,9.71 h 24.59 V 2080.2 h 34.09 v -24.9 h -107.41 v 24.9 h 43.31 v 116.99 c -12.64,-4.73 -27.07,-7.86 -43.31,-9.18 v 22.9" /><path
         id="path72"
         style="fill:#ffffff;fill-opacity:1;fill-rule:nonzero;stroke:none"
         d="m 4023.31,2173.66 c -2.93,10.69 -7.28,18.55 -13.11,23.53 -5.86,4.94 -12.48,7.42 -19.85,7.42 -7.96,0 -14.52,-2.68 -19.55,-7.86 -5.08,-5.22 -7.62,-12.25 -7.62,-21.04 0,-8.45 2.39,-15.19 7.13,-20.22 4.83,-5.03 10.69,-7.56 17.77,-7.56 6.64,0 12.75,2 18.33,6.1 5.57,4.1 11.28,10.6 16.9,19.63 z m 2.88,-35.11 c -7.4,-6.35 -14.82,-11.18 -22.22,-14.35 -7.39,-3.18 -14.86,-4.79 -22.31,-4.79 -14.41,0 -26.68,5.08 -36.65,15.28 -10.03,10.21 -15.01,22.9 -15.01,38.14 0,10.59 2.56,20.55 7.89,29.73 5.22,9.14 12.69,16.26 22.33,21.24 9.65,4.99 19.68,7.52 30.22,7.52 15.85,0 29.89,-5.71 42.39,-17.04 15.8,-14.45 23.66,-36.28 23.66,-65.57 0,-14.9 -2.08,-28.71 -6.38,-41.6 -4.25,-12.8 -9.47,-23 -15.72,-30.62 -6.25,-7.62 -13.55,-13.62 -21.97,-17.97 -8.4,-4.44 -17.87,-6.64 -28.39,-6.64 -19.71,0 -36.55,7.71 -50.44,23.1 l 19.43,24.65 c 8.94,-11.47 19.06,-17.23 30.32,-17.23 7.01,0 13.92,2.24 20.53,6.78 6.64,4.45 12.14,11.48 16.29,21.1 2.98,6.93 4.93,16.31 6.03,28.27" /><path
         id="path74"
         style="fill:#ffffff;fill-opacity:1;fill-rule:nonzero;stroke:none"
         d="m 4144.23,2110.52 c 2.51,-10.59 6.71,-18.41 12.6,-23.48 5.83,-5.03 12.6,-7.52 20.36,-7.52 7.93,0 14.41,2.68 19.55,8.1 5.23,5.42 7.8,12.45 7.8,21.09 0,8.31 -2.45,14.95 -7.21,20.08 -4.85,5.02 -10.99,7.61 -18.43,7.61 -6.49,0 -12.48,-2 -17.92,-5.81 -5.47,-3.91 -11.01,-10.55 -16.75,-20.07 z m -2.54,35.5 c 7.25,6.25 14.56,10.89 21.98,14.02 7.49,3.12 15.01,4.68 22.75,4.68 12.42,0 24.04,-4.74 34.77,-14.26 10.81,-9.47 16.21,-22.55 16.21,-39.3 0,-10.5 -2.57,-20.46 -7.7,-29.79 -5.14,-9.32 -12.37,-16.55 -21.73,-21.73 -9.37,-5.12 -19.48,-7.76 -30.32,-7.76 -16.77,0 -31.22,5.71 -43.43,17.04 -15.6,14.46 -23.39,36.04 -23.39,64.79 0,19 3.47,36.38 10.38,52.2 6.93,15.82 15.96,27.35 26.98,34.57 11.08,7.23 22.36,10.84 33.86,10.84 10.35,0 20.31,-2.14 29.78,-6.39 7.4,-3.32 14.53,-8.6 21.49,-15.77 l -19.16,-24.37 c -4.74,6.01 -9.48,10.35 -14.19,12.99 -4.79,2.59 -10.16,3.95 -15.97,3.95 -7.91,0 -15.24,-2.53 -21.88,-7.71 -6.61,-5.03 -11.83,-12.75 -15.69,-23 -2.42,-6.54 -4.05,-14.89 -4.74,-25" /><path
         id="path76"
         style="fill:#ffffff;fill-opacity:1;fill-rule:nonzero;stroke:none"
         d="m 4381.41,2173.66 c -2.85,10.69 -7.2,18.55 -13.08,23.53 -5.86,4.94 -12.5,7.42 -19.85,7.42 -7.99,0 -14.5,-2.68 -19.58,-7.86 -5.06,-5.22 -7.55,-12.25 -7.55,-21.04 0,-8.45 2.38,-15.19 7.11,-20.22 4.79,-5.03 10.71,-7.56 17.78,-7.56 6.64,0 12.74,2 18.33,6.1 5.56,4.1 11.21,10.6 16.84,19.63 z m 2.91,-35.11 c -7.4,-6.35 -14.79,-11.18 -22.2,-14.35 -7.39,-3.18 -14.84,-4.79 -22.28,-4.79 -14.45,0 -26.71,5.08 -36.75,15.28 -9.93,10.21 -15.01,22.9 -15.01,38.14 0,10.59 2.66,20.55 7.88,29.73 5.32,9.14 12.78,16.26 22.39,21.24 9.67,4.99 19.7,7.52 30.23,7.52 15.84,0 29.93,-5.71 42.38,-17.04 15.79,-14.45 23.68,-36.28 23.68,-65.57 0,-14.9 -2.14,-28.71 -6.42,-41.6 -4.22,-12.8 -9.45,-23 -15.68,-30.62 -6.31,-7.62 -13.59,-13.62 -21.94,-17.97 -8.45,-4.44 -17.95,-6.64 -28.42,-6.64 -19.72,0 -36.55,7.71 -50.49,23.1 l 19.44,24.65 c 8.98,-11.47 19.04,-17.23 30.37,-17.23 6.98,0 13.87,2.24 20.53,6.78 6.64,4.45 12.09,11.48 16.26,21.1 2.97,6.93 4.93,16.31 6.03,28.27" /><path
         id="path78"
         style="fill:#ffffff;fill-opacity:1;fill-rule:nonzero;stroke:none"
         d="m 3308.95,1908.03 c 0,0 47.75,-3.61 53.22,36.72 0,0 11.69,61.48 31.71,87.5 27.59,35.89 35.63,68.21 35.63,68.21 6.54,18.31 10.3,107.82 10.3,107.82 l 117.43,-0.2 c 0,0 53.83,-2.49 68.56,52 0,0 15.54,54.01 -19.63,74.61 0,0 4.25,-65.18 -75.59,-68.46 h -150.93 c 0,0 -34.71,15.04 -71.73,12.5 -37.01,0.88 -69.7,-11.66 -69.7,-11.66 h -150.9 c -79.83,3.32 -75.59,68.5 -75.59,68.5 -35.18,-20.65 -19.63,-74.61 -19.63,-74.61 14.72,-54.54 68.56,-52 68.56,-52 l 117.4,0.2 c 0,0 3.79,-89.55 10.33,-107.87 0,0 8.01,-32.32 35.62,-68.21 19.97,-26.03 31.69,-87.45 31.69,-87.45 5.13,-41.21 53.25,-37.6 53.25,-37.6" /><path
         id="path80"
         style="fill:#ffffff;fill-opacity:1;fill-rule:evenodd;stroke:none"
         d="m 1765.26,968.719 c 34.11,-8.789 41.99,-30.61 41.99,-67.289 0,-68.981 5.25,-147.66 5.25,-236.719 V 483.91 c 0,-41.012 -1.78,-80.43 -45.45,-86.48 v -19.239 c 30.61,0 62.03,3.508 92.59,3.508 30.57,0 61.17,-3.508 91.73,-3.508 v 19.239 c -34.11,7.871 -45.44,31.5 -45.44,65.519 v 151.082 c 22.69,-1.761 44.53,-3.461 66.39,-3.461 117.92,0 235.81,66.309 235.81,196.52 0,125.691 -96.06,180.769 -223.55,180.769 -36.7,0 -72.51,-3.519 -109.23,-3.519 -36.67,0 -73.34,3.519 -110.09,3.519 z m 143.31,-33.207 c 0,21.738 10.45,29.648 53.25,29.648 96.97,0 139.77,-72.519 139.77,-163.34 0,-96.968 -38.43,-159.8 -143.24,-159.8 -40.18,0 -53.3,6.089 -53.3,34.859 l 3.52,258.633" /><path
         id="path82"
         style="fill:#ffffff;fill-opacity:1;fill-rule:evenodd;stroke:none"
         d="m 2479.76,730.199 c -16.62,11.371 -38.43,18.36 -55.03,18.36 -34.93,0 -68.13,-44.59 -85.59,-71.68 h -1.78 l -2.62,73.441 h -17.43 c -21.88,-17.48 -61.18,-40.199 -104.81,-48.929 v -18.36 c 28.81,-6.992 40.14,-17.441 40.14,-47.133 0,-28.839 4.4,-65.519 4.4,-105.66 v -92.617 c 0,-26.172 -8.74,-36.68 -26.22,-41.07 V 379.07 c 23.6,0.879 47.18,2.629 70.72,2.629 24.51,0 48.95,-1.75 73.42,-2.629 v 17.481 c -24.47,4.39 -33.21,14.898 -33.21,41.07 v 76.801 c 0,38.476 6.11,69.976 6.11,89.16 0,27.93 22.72,74.219 59.39,74.219 30.6,0 43.65,-14.012 55.03,-29.692 h 17.48 v 82.09" /><path
         id="path84"
         style="fill:#ffffff;fill-opacity:1;fill-rule:evenodd;stroke:none"
         d="m 2481.3,559.012 c 0,-82.09 59.33,-189.551 200.9,-189.551 141.44,0 200.86,107.461 200.86,189.551 0,82.129 -59.42,189.547 -200.86,189.547 -141.57,0 -200.9,-107.418 -200.9,-189.547 z m 94.34,0 c 0,80.367 27.1,154.59 106.56,154.59 79.45,0 106.55,-74.223 106.55,-154.59 0,-80.332 -27.1,-154.59 -106.55,-154.59 -79.46,0 -106.56,74.258 -106.56,154.59" /><path
         id="path86"
         style="fill:#ffffff;fill-opacity:1;fill-rule:evenodd;stroke:none"
         d="m 3272.32,998.309 c -21.86,-24.418 -74.25,-48.93 -117.07,-60.2 v -17.48 c 22.7,-3.52 44.53,-15.719 44.53,-64.649 V 726.719 c -29.69,13.972 -59.42,21.84 -89.06,21.84 -111.79,0 -193.92,-69.879 -193.92,-191.309 0,-105.66 69.92,-187.789 176.44,-187.789 29.71,0 46.29,4.391 61.13,13.121 l 50.68,44.59 c 14,-26.231 38.43,-48.102 66.36,-57.711 16.58,20.937 48.93,44.629 79.47,64.687 l -13.13,13.043 c -6.06,-3.421 -12.19,-6.992 -24.4,-6.992 -20.11,0 -27.1,17.481 -27.1,48.93 v 217.543 c 0,125.777 3.52,223.566 3.52,291.637 z M 3201.54,452.41 c -22.73,-21.781 -45.41,-30.512 -70.75,-30.512 -75.98,0 -119.63,85.59 -119.63,158.102 0,59.379 27.96,133.602 96.95,133.602 68.97,0 93.43,-34.922 93.43,-117.93 V 452.41" /><path
         id="path88"
         style="fill:#ffffff;fill-opacity:1;fill-rule:evenodd;stroke:none"
         d="m 3333.28,721.512 c 20.99,-0.883 26.17,-12.211 26.17,-41.082 0,-20.989 2.66,-54.141 2.66,-89.102 v -81.207 c 0,-79.492 42.75,-140.66 130.13,-140.66 33.2,0 89.11,24.508 113.55,45.449 7.01,-12.25 48.9,-45.449 56.78,-45.449 6.99,0 73.37,31.48 82.13,36.719 l -7,16.64 c -7.89,-3.558 -13.16,-6.191 -21.83,-6.191 -17.46,0 -26.25,11.359 -26.25,46.32 V 680.43 c 0,25.3 8.79,34.929 26.25,41.082 v 17.418 c -21.02,-2.578 -42.85,-2.578 -63.77,-2.578 -26.2,0 -51.56,-0.883 -77.78,2.578 v -17.418 c 25.36,-7.91 30.59,-20.121 30.59,-41.082 V 441.141 c -18.36,-13.153 -43.67,-19.243 -65.5,-19.243 -58.55,0 -92.58,30.512 -92.58,96.973 v 68.949 c 0,34.899 -2.66,71.621 -2.66,92.61 0,24.422 8.78,34.929 36.69,41.082 v 17.418 c -24.44,-2.578 -47.97,-2.578 -72.44,-2.578 -25.34,0 -49.8,0 -75.14,2.578 v -17.418" /><path
         id="path90"
         style="fill:#ffffff;fill-opacity:1;fill-rule:evenodd;stroke:none"
         d="m 4071.15,726.719 c -39.29,13.051 -80.32,21.84 -123.13,21.84 -141.52,0 -200.93,-107.418 -200.93,-189.547 0,-82.09 59.41,-189.551 200.93,-189.551 48.93,0 85.6,6.969 120.54,17.48 l 26.22,64.649 -16.63,4.39 c -24.41,-27.05 -55.91,-42.832 -95.22,-42.832 -89.06,0 -141.47,82.133 -141.47,155.473 0,71.68 33.2,144.981 113.57,144.981 45.46,0 80.38,-30.571 97.83,-75.102 h 23.53 l -5.24,88.219" /><path
         id="path92"
         style="fill:#ffffff;fill-opacity:1;fill-rule:evenodd;stroke:none"
         d="m 4191.46,634.051 c -1.79,44.629 28.83,84.758 75.95,84.758 56.78,0 81.25,-33.137 81.25,-84.758 z m 251.51,-34.871 c -0.86,92.582 -70.65,149.379 -160.69,149.379 -118.78,0 -178.22,-107.418 -178.22,-189.547 0,-82.09 59.44,-189.551 200.9,-189.551 36.74,0 65.57,6.969 82.98,13.121 l 47.19,69.008 -8.71,10.449 c -26.25,-19.141 -59.42,-27.891 -91.78,-27.891 -89.89,0 -151.92,78.614 -145.8,165.032 h 254.13" /><path
         id="path94"
         style="fill:#ffffff;fill-opacity:1;fill-rule:evenodd;stroke:none"
         d="m 4726.81,730.199 c -16.58,11.371 -38.46,18.36 -55.01,18.36 -34.96,0 -68.16,-44.59 -85.64,-71.68 h -1.71 l -2.61,73.441 h -17.48 c -21.87,-17.48 -61.18,-40.199 -104.83,-48.929 v -18.36 c 28.87,-6.992 40.15,-17.441 40.15,-47.133 0,-28.839 4.4,-65.519 4.4,-105.66 v -92.617 c 0,-26.172 -8.74,-36.68 -26.19,-41.07 V 379.07 c 23.58,0.879 47.11,2.629 70.75,2.629 24.46,0 48.89,-1.75 73.34,-2.629 v 17.481 c -24.45,4.39 -33.19,14.898 -33.19,41.07 v 76.801 c 0,38.476 6.14,69.976 6.14,89.16 0,27.93 22.72,74.219 59.39,74.219 30.57,0 43.68,-14.012 55.01,-29.692 h 17.48 v 82.09" /><path
         id="path96"
         style="fill:#ffffff;fill-opacity:1;fill-rule:evenodd;stroke:none"
         d="m 4749.15,476.039 5.22,-81.187 c 26.22,-16.661 70.78,-25.391 101.32,-25.391 75.13,0 138.87,34.019 138.87,117.027 0,119.692 -173.83,88.242 -173.83,172.133 0,35.84 25.37,54.981 60.33,54.981 47.12,0 71.58,-21.84 81.25,-66.411 h 27.9 l 3.5,78.649 c -36.7,11.332 -73.34,22.719 -110.94,22.719 -71.63,0 -137.99,-34.957 -137.99,-115.329 0,-124.031 179.9,-110.898 179.9,-174.609 0,-34.082 -28.78,-54.199 -61.15,-54.199 -39.26,0 -73.34,29.726 -82.11,71.617 h -32.27" /></g></g></svg>